<?xml version="1.0" encoding="UTF-8"?>
<svg id="Layer_2" data-name="Layer 2" xmlns="http://www.w3.org/2000/svg" viewBox="0 0 198.2 109.19">
  <defs>
    <style>
      .cls-1, .cls-2 {
        fill: #fff;
      }

      .cls-2 {
        stroke: #fff;
        stroke-miterlimit: 10;
      }
    </style>
  </defs>
  <g id="Layer_1-2" data-name="Layer 1">
    <g>
      <g>
        <path class="cls-1" d="m53.33,62.55c-.43,0-.85-.35-1.03-.79l-4.62-14.78h-22.39l-4.44,14.78c-.17.44-.6.79-1.03.79h-11.71c-.43,0-.68-.35-.51-.79L27.86,2.1c.17-.44.6-.79,1.03-.79h15.98c.43,0,.85.35,1.03.79l19.83,59.66c.17.44-.09.79-.51.79h-11.88Zm-8.89-26.16l-8.2-26.16-7.78,26.16h15.98Z"/>
        <path class="cls-1" d="m91.19,63.95c-15.73,0-26.49-6.74-27.09-21.26,0-.44.34-.79.77-.79h12.05c.43,0,.77.35.85.79.85,6.82,3.85,11.28,13.67,11.28,7.78,0,12.05-2.36,12.05-8.14,0-13.82-38.2-2.89-38.2-27.21,0-11.46,8.72-18.63,24.02-18.63,14.02,0,23.67,5.51,25.47,18.63,0,.44-.26.79-.68.79h-12.14c-.43,0-.77-.35-.85-.79-.68-5.51-5.04-8.57-12.31-8.57-6.15,0-10.6,2.19-10.6,7.26,0,13.03,38.37,2.45,38.37,26.68,0,12.95-9.74,19.95-25.38,19.95Z"/>
        <path class="cls-1" d="m120.84,62.55c-.43,0-.77-.35-.77-.79l.43-29.83-.43-29.83c0-.44.34-.79.77-.79h11.62c.43,0,.77.35.77.79l-.43,29.83.43,29.83c0,.44-.34.79-.77.79h-11.62Z"/>
        <path class="cls-2" d="m181.01,62.55c-.43,0-.85-.35-1.03-.79l-4.62-14.78h-22.39l-4.44,14.78c-.17.44-.6.79-1.03.79h-11.71c-.43,0-.68-.35-.51-.79L155.54,2.1c.17-.44.6-.79,1.03-.79h15.98c.43,0,.85.35,1.03.79l19.83,59.66c.17.44-.09.79-.51.79h-11.88Zm-8.89-26.16l-8.21-26.16-7.78,26.16h15.98Z"/>
      </g>
      <g>
        <path class="cls-1" d="m29.48,108.32c-.28,0-.55-.23-.66-.52l-2.97-9.8h-14.42l-2.86,9.8c-.11.29-.39.52-.66.52H.36c-.28,0-.44-.23-.33-.52l13.04-39.56c.11-.29.39-.52.66-.52h10.29c.28,0,.55.23.66.52l12.77,39.56c.11.29-.05.52-.33.52h-7.65Zm-5.72-17.34l-5.28-17.34-5.01,17.34h10.29Z"/>
        <path class="cls-1" d="m52.48,109.19c-10.24,0-15.63-5.63-15.63-15.95l.06-11.02-.22-13.98c0-.29.22-.52.5-.52h7.76c.28,0,.5.23.5.52l-.17,13.75v11.19c0,5.8,2.2,8.99,7.21,8.99,5.39,0,7.76-3.19,7.76-8.99v-11.02l-.17-13.92c0-.29.22-.52.5-.52h6.94c.27,0,.5.23.5.52l-.17,13.98v11.02c0,10.32-5.12,15.95-15.36,15.95Z"/>
        <path class="cls-1" d="m81.1,108.32c-.28,0-.5-.23-.5-.52l.33-19.78-.22-13.75h-10.68c-.27,0-.5-.23-.5-.52v-5.51c0-.29.22-.52.5-.52h29.83c.27,0,.5.23.5.52v5.51c0,.29-.22.52-.5.52h-10.62l-.22,13.75.33,19.78c0,.29-.22.52-.5.52h-7.76Z"/>
        <path class="cls-1" d="m119.85,99.27l-3.8-6.03h-5.5l.17,14.56c0,.29-.22.52-.5.52h-7.54c-.28,0-.5-.23-.5-.52l.22-19.78-.22-19.78c0-.29.22-.52.5-.52h15.63c9.63,0,15.19,4.29,15.19,12.76,0,5.97-3.14,10.09-8.59,11.83l9.58,15.54c.11.23,0,.46-.22.46h-8.75c-.28,0-.61-.17-.77-.46l-4.9-8.58Zm-1.21-25.11h-7.98l-.17,12.64h8.37c3.52,0,6.55-1.74,6.55-6.15s-2.48-6.5-6.77-6.5Z"/>
        <path class="cls-1" d="m136.52,108.32c-.27,0-.5-.23-.5-.52l.28-19.78-.28-19.78c0-.29.22-.52.5-.52h25.98c.28,0,.5.23.5.52v5.51c0,.29-.22.52-.5.52h-17.94l-.22,9.34h16.57c.28,0,.5.23.5.52v5.51c0,.29-.22.52-.5.52h-16.57l.22,11.6h18.38c.28,0,.5.23.5.52v5.51c0,.29-.22.52-.5.52h-26.42Z"/>
        <path class="cls-1" d="m185.34,107.8c0,.29-.22.52-.5.52h-7.54c-.28,0-.5-.23-.5-.52l.17-12.88-12.99-26.74c-.11-.23.05-.46.27-.46h8.59c.27,0,.6.17.71.46l7.82,18.68,7.98-18.68c.11-.29.44-.46.72-.46h7.82c.22,0,.39.23.28.46l-12.99,26.74.17,12.88Z"/>
      </g>
    </g>
  </g>
</svg>