<?xml version="1.0" encoding="UTF-8"?>
<svg id="Layer_1" data-name="Layer 1" xmlns="http://www.w3.org/2000/svg" viewBox="0 0 282.17 157.56">
  <defs>
    <style>
      .cls-1 {
        fill: #fff;
      }

      .cls-2 {
        fill: #a89d93;
      }
    </style>
  </defs>
  <g>
    <path class="cls-1" d="m78.01,89.03c-.62,0-1.25-.5-1.49-1.12l-6.72-21.04h-32.62l-6.47,21.04c-.25.62-.87,1.12-1.49,1.12H12.14c-.62,0-1-.5-.75-1.12L40.9,2.99c.25-.62.87-1.12,1.49-1.12h23.28c.62,0,1.25.5,1.49,1.12l28.89,84.92c.25.62-.12,1.12-.75,1.12h-17.31Zm-12.95-37.23l-11.95-37.23-11.33,37.23h23.28Z"/>
    <path class="cls-1" d="m133.17,91.02c-22.91,0-38.6-9.59-39.47-30.26,0-.62.5-1.12,1.12-1.12h17.56c.62,0,1.12.5,1.25,1.12,1.25,9.71,5.6,16.06,19.92,16.06,11.33,0,17.56-3.36,17.56-11.58,0-19.67-55.66-4.11-55.66-38.72,0-16.31,12.7-26.52,34.99-26.52,20.42,0,34.49,7.84,37.1,26.52,0,.62-.37,1.12-1,1.12h-17.68c-.62,0-1.12-.5-1.25-1.12-1-7.84-7.35-12.2-17.93-12.2-8.96,0-15.44,3.11-15.44,10.33,0,18.55,55.91,3.49,55.91,37.98,0,18.43-14.19,28.39-36.98,28.39Z"/>
    <path class="cls-1" d="m176.38,89.03c-.62,0-1.12-.5-1.12-1.12l.62-42.46-.62-42.46c0-.62.5-1.12,1.12-1.12h16.93c.62,0,1.12.5,1.12,1.12l-.62,42.46.62,42.46c0,.62-.5,1.12-1.12,1.12h-16.93Z"/>
    <path class="cls-1" d="m264.03,89.03c-.62,0-1.25-.5-1.49-1.12l-6.72-21.04h-32.62l-6.47,21.04c-.25.62-.87,1.12-1.49,1.12h-17.06c-.62,0-1-.5-.75-1.12L226.93,2.99c.25-.62.87-1.12,1.49-1.12h23.28c.62,0,1.24.5,1.49,1.12l28.89,84.92c.25.62-.12,1.12-.75,1.12h-17.31Zm-12.95-37.23l-11.95-37.23-11.33,37.23h23.28Z"/>
  </g>
  <g>
    <path class="cls-2" d="m45.4,156.43c-.34,0-.68-.26-.77-.61l-5.99-17.51H13.89l-5.82,17.51c-.09.35-.43.61-.77.61H.45c-.34,0-.51-.26-.43-.61l21.15-59.46c.09-.35.43-.61.77-.61h9.25c.34,0,.69.26.77.61l20.89,59.46c.09.35-.09.61-.43.61h-7.02Zm-9.08-24.96l-10.1-29.99-10.02,29.99h20.12Z"/>
    <path class="cls-2" d="m74.59,157.56c-14.81,0-22.26-8.84-22.26-24.09v-18.89l-.17-18.2c0-.35.26-.61.6-.61h7.11c.34,0,.6.26.6.61l-.17,18.03v19.07c0,10.31,4.11,17.25,14.3,17.25s14.64-6.93,14.64-17.25v-18.89l-.17-18.2c0-.35.26-.61.6-.61h6.42c.34,0,.6.26.6.61l-.09,18.2v18.89c0,15.25-7.19,24.09-22,24.09Z"/>
    <path class="cls-2" d="m117.49,156.43c-.34,0-.6-.26-.6-.61l.34-29.47-.26-24.09h-16.87c-.34,0-.6-.26-.6-.61v-5.29c0-.35.26-.61.6-.61h41.78c.34,0,.6.26.6.61v5.29c0,.35-.26.61-.6.61h-16.78l-.26,24.09.34,29.47c0,.35-.26.61-.6.61h-7.11Z"/>
    <path class="cls-2" d="m175.79,145.95l-9.16-14.3h-12.76l.17,24.18c0,.35-.26.61-.6.61h-6.94c-.34,0-.6-.26-.6-.61l.26-30.59-.26-28.86c0-.35.26-.61.6-.61h21.15c13.61,0,22,5.98,22,17.85,0,9.71-5.56,15.43-14.55,17.33l15.75,24.96c.17.26,0,.52-.26.52h-8.13c-.34,0-.68-.26-.94-.52l-5.74-9.97Zm-7.45-43.77h-14.38l-.17,23.14h14.73c7.88,0,13.36-3.38,13.36-11.53,0-7.71-5.05-11.61-13.53-11.61Z"/>
    <path class="cls-2" d="m195.14,156.43c-.34,0-.6-.26-.6-.61l.26-30.68-.26-28.77c0-.35.26-.61.6-.61h36.56c.34,0,.6.26.6.61v5.29c0,.35-.26.61-.6.61h-29.02l-.26,18.55h27.23c.34,0,.6.26.6.61v5.29c0,.35-.26.61-.6.61h-27.23l.26,22.62h29.71c.34,0,.6.26.6.61v5.29c0,.35-.26.61-.6.61h-37.24Z"/>
    <path class="cls-2" d="m261.92,155.83c0,.35-.26.61-.6.61h-6.93c-.34,0-.6-.26-.6-.61l.17-20.28-19.78-39.26c-.09-.26.09-.52.34-.52h7.88c.34,0,.69.26.86.52l14.98,31.72,15.07-31.72c.17-.26.51-.52.86-.52h7.19c.26,0,.43.26.34.52l-19.95,39.26.17,20.28Z"/>
  </g>
</svg>