<?xml version="1.0" encoding="UTF-8"?>
<svg id="Layer_1" data-name="Layer 1" xmlns="http://www.w3.org/2000/svg" viewBox="0 0 279.94 151.75">
  <defs>
    <style>
      .cls-1 {
        fill: #fff;
      }
    </style>
  </defs>
  <g>
    <path class="cls-1" d="m75.78,89.03c-.62,0-1.25-.5-1.49-1.12l-6.72-21.04h-32.62l-6.47,21.04c-.25.62-.87,1.12-1.49,1.12H9.91c-.62,0-1-.5-.75-1.12L38.67,2.99c.25-.62.87-1.12,1.49-1.12h23.28c.62,0,1.25.5,1.49,1.12l28.89,84.92c.25.62-.12,1.12-.75,1.12h-17.31Zm-12.95-37.23l-11.95-37.23-11.33,37.23h23.28Z"/>
    <path class="cls-1" d="m130.94,91.02c-22.91,0-38.6-9.59-39.47-30.26,0-.62.5-1.12,1.12-1.12h17.56c.62,0,1.12.5,1.25,1.12,1.25,9.71,5.6,16.06,19.92,16.06,11.33,0,17.56-3.36,17.56-11.58,0-19.67-55.66-4.11-55.66-38.72,0-16.31,12.7-26.52,34.99-26.52,20.42,0,34.49,7.84,37.1,26.52,0,.62-.37,1.12-1,1.12h-17.68c-.62,0-1.12-.5-1.25-1.12-1-7.84-7.35-12.2-17.93-12.2-8.96,0-15.44,3.11-15.44,10.33,0,18.55,55.91,3.49,55.91,37.98,0,18.43-14.19,28.39-36.98,28.39Z"/>
    <path class="cls-1" d="m174.15,89.03c-.62,0-1.12-.5-1.12-1.12l.62-42.46-.62-42.46c0-.62.5-1.12,1.12-1.12h16.93c.62,0,1.12.5,1.12,1.12l-.62,42.46.62,42.46c0,.62-.5,1.12-1.12,1.12h-16.93Z"/>
    <path class="cls-1" d="m261.8,89.03c-.62,0-1.25-.5-1.49-1.12l-6.72-21.04h-32.62l-6.47,21.04c-.25.62-.87,1.12-1.49,1.12h-17.06c-.62,0-1-.5-.75-1.12L224.7,2.99c.25-.62.87-1.12,1.49-1.12h23.28c.62,0,1.24.5,1.49,1.12l28.89,84.92c.25.62-.12,1.12-.75,1.12h-17.31Zm-12.95-37.23l-11.95-37.23-11.33,37.23h23.28Z"/>
  </g>
  <g>
    <path class="cls-1" d="m43.13,150.59c-.4,0-.73-.25-.89-.67l-4.94-15.34H14.87l-4.86,15.34c-.08.42-.41.67-.81.67H.46c-.32,0-.57-.33-.4-.67l19.52-57.01c.16-.42.49-.67.89-.67h11.9c.4,0,.73.25.89.67l19.19,57.01c.16.33-.08.67-.4.67h-8.91Zm-8.58-24.5l-8.58-26.67-8.42,26.67h17.01Z"/>
    <path class="cls-1" d="m73.82,151.75c-14.58,0-22.03-8.25-22.03-23v-16.92l-.16-18.92c0-.33.32-.67.65-.67h8.99c.32,0,.65.33.65.67l-.16,18.67v17.09c0,9.08,3.56,14.58,12.07,14.58s12.63-5.5,12.63-14.58v-16.84l-.16-18.92c0-.33.32-.67.65-.67h8.1c.32,0,.65.33.65.67l-.16,18.92v16.92c0,14.75-7.21,23-21.7,23Z"/>
    <path class="cls-1" d="m115.11,150.59c-.32,0-.65-.33-.65-.67l.4-28.42-.24-21.25h-15.79c-.32,0-.65-.33-.65-.67v-6.67c0-.33.32-.67.65-.67h41.7c.32,0,.65.33.65.67v6.67c0,.33-.32.67-.65.67h-15.79l-.32,21.25.4,28.42c0,.33-.32.67-.65.67h-9.07Z"/>
    <path class="cls-1" d="m171.23,138.92l-7.04-10.92h-10.2l.16,21.92c0,.33-.32.67-.65.67h-8.74c-.32,0-.65-.33-.65-.67l.24-28.84-.24-28.17c0-.33.32-.67.65-.67h21.46c13.52,0,21.54,6,21.54,17.84,0,8.92-4.86,14.67-13.04,16.92l14.41,23c.16.25,0,.58-.32.58h-10.28c-.4,0-.81-.25-.97-.58l-6.32-11.08Zm-4.45-38.84h-12.71l-.16,20h13.12c6.32,0,11.09-2.83,11.09-9.83s-4.13-10.17-11.34-10.17Z"/>
    <path class="cls-1" d="m192.68,150.59c-.32,0-.65-.33-.65-.67l.32-28.92-.32-28.09c0-.33.32-.67.65-.67h36.36c.32,0,.65.33.65.67v6.67c0,.33-.32.67-.65.67h-26.97l-.24,15.42h25.02c.32,0,.65.33.65.67v6.67c0,.33-.32.67-.65.67h-25.02l.24,18.92h27.61c.32,0,.65.33.65.67v6.67c0,.33-.32.67-.65.67h-37.01Z"/>
    <path class="cls-1" d="m260.21,149.92c0,.33-.32.67-.65.67h-8.83c-.32,0-.65-.33-.65-.67l.24-19-18.87-38.09c-.16-.25,0-.58.32-.58h9.96c.4,0,.73.25.89.58l12.88,28.75,13.04-28.75c.16-.33.49-.58.89-.58h9.15c.32,0,.49.33.32.58l-18.95,38.25.24,18.84Z"/>
  </g>
</svg>