<?xml version="1.0" standalone="no"?>
<!DOCTYPE svg PUBLIC "-//W3C//DTD SVG 20010904//EN"
 "http://www.w3.org/TR/2001/REC-SVG-20010904/DTD/svg10.dtd">
<svg version="1.0" xmlns="http://www.w3.org/2000/svg"
 width="1120.000000pt" height="1120.000000pt" viewBox="0 0 1120.000000 1120.000000"
 preserveAspectRatio="xMidYMid meet">
<metadata>
Created by potrace 1.14, written by Peter Selinger 2001-2017
</metadata>
<g transform="translate(0.000000,1120.000000) scale(0.100000,-0.100000)"
fill="#000000" stroke="none">
<path d="M4939 8626 c-2 -2 -35 -7 -74 -10 -38 -4 -81 -9 -95 -11 -14 -2 -43
-7 -65 -10 -88 -14 -214 -49 -320 -89 -31 -12 -153 -72 -195 -96 -84 -50 -210
-161 -265 -235 -17 -22 -32 -42 -35 -45 -19 -19 -83 -154 -108 -226 -39 -114
-47 -175 -47 -349 1 -122 5 -166 23 -235 23 -88 84 -223 124 -275 27 -35 142
-152 176 -178 35 -27 142 -91 187 -111 22 -10 54 -25 70 -32 101 -46 381 -127
520 -150 17 -3 37 -7 45 -10 8 -3 51 -12 95 -20 44 -7 89 -16 100 -18 11 -2
70 -14 130 -26 61 -12 130 -26 155 -31 288 -59 495 -167 558 -292 43 -87 49
-224 13 -318 -5 -13 -8 -26 -7 -29 2 -10 -49 -76 -90 -117 -121 -117 -377
-171 -704 -150 -216 15 -364 71 -476 182 -61 59 -124 152 -124 180 0 8 -4 15
-8 15 -5 0 -9 6 -10 13 -1 6 -8 37 -17 67 -9 30 -22 89 -30 130 -10 49 -21 78
-32 84 -29 17 -731 15 -754 -2 -17 -11 -18 -23 -14 -95 3 -45 7 -93 10 -107 3
-14 8 -38 11 -55 16 -90 54 -207 92 -285 27 -55 75 -135 84 -138 4 -2 8 -8 8
-14 0 -17 92 -121 166 -188 104 -94 280 -192 439 -245 44 -15 87 -29 95 -32 8
-3 22 -7 30 -9 8 -2 38 -8 65 -14 51 -12 62 -14 130 -25 22 -3 46 -8 53 -10
77 -26 681 -26 772 0 8 3 31 6 50 9 120 15 313 73 436 131 90 42 216 119 222
136 2 5 8 9 14 9 12 0 122 110 170 170 102 128 175 312 195 490 8 70 8 261 1
320 -7 50 -35 163 -47 188 -4 10 -18 40 -31 67 -50 105 -169 246 -257 302 -15
10 -30 20 -33 23 -22 22 -243 130 -300 145 -3 1 -12 4 -20 8 -23 9 -177 56
-202 61 -13 3 -51 12 -85 20 -34 9 -77 18 -95 21 -18 4 -53 11 -78 16 -25 6
-67 15 -95 19 -56 10 -87 16 -160 30 -27 5 -61 11 -75 14 -14 2 -43 7 -65 12
-22 4 -49 9 -60 10 -11 1 -21 3 -22 4 -3 3 -6 3 -53 14 -113 25 -256 72 -328
108 -144 71 -211 161 -217 291 -10 226 154 378 448 414 106 13 314 7 406 -12
90 -18 198 -60 256 -99 84 -57 183 -190 201 -269 3 -12 7 -29 9 -37 2 -8 4
-25 4 -36 1 -12 10 -32 20 -45 l19 -24 372 0 c275 0 374 3 381 12 12 13 14 38
6 73 -3 14 -8 43 -12 65 -25 141 -112 342 -198 457 -71 94 -166 188 -226 224
-17 10 -31 22 -31 26 0 4 -4 8 -9 8 -5 0 -39 18 -76 39 -93 55 -278 125 -380
145 -50 10 -194 35 -238 41 -47 7 -492 17 -498 11z"/>
<path d="M1581 8544 c-20 -8 -31 -25 -45 -70 -11 -32 -22 -63 -25 -69 -3 -5
-6 -14 -7 -20 -3 -11 -111 -322 -121 -345 -3 -8 -7 -17 -8 -20 -4 -18 -28 -88
-35 -105 -5 -11 -30 -83 -56 -160 -26 -77 -52 -151 -57 -165 -6 -14 -11 -27
-12 -30 -11 -38 -31 -97 -70 -205 -25 -71 -48 -137 -50 -145 -2 -8 -24 -73
-50 -145 -26 -71 -55 -155 -65 -185 -10 -30 -48 -140 -85 -245 -36 -104 -77
-224 -91 -265 -14 -41 -32 -89 -40 -107 -8 -17 -14 -36 -14 -43 0 -7 -6 -26
-14 -43 -8 -18 -16 -41 -19 -52 -5 -19 -108 -314 -120 -345 -4 -8 -18 -51 -32
-95 -14 -44 -30 -89 -35 -100 -5 -11 -25 -69 -45 -130 -21 -60 -40 -117 -43
-125 -3 -8 -6 -17 -7 -20 -1 -3 -4 -12 -8 -20 -3 -8 -13 -37 -22 -65 -10 -27
-20 -57 -23 -65 -3 -8 -6 -19 -8 -25 -1 -5 -5 -17 -8 -26 -16 -37 12 -41 336
-40 172 0 331 0 354 1 24 0 49 7 61 18 16 13 68 151 79 207 1 6 34 114 73 240
40 127 74 237 76 245 11 44 48 156 55 165 6 7 233 10 656 10 l648 0 27 -85
c15 -47 28 -86 29 -87 0 -2 2 -8 5 -15 2 -7 9 -31 16 -53 7 -22 14 -42 14 -45
1 -6 -2 4 92 -290 91 -289 91 -288 115 -301 21 -11 704 -15 738 -4 12 4 17 13
15 27 -6 30 -25 89 -36 113 -5 11 -22 61 -38 110 -16 50 -81 243 -145 430
-127 370 -186 544 -190 560 -2 6 -6 17 -9 25 -7 17 -254 742 -293 860 -13 41
-27 82 -31 90 -3 8 -7 20 -9 25 -1 6 -26 78 -54 160 -29 83 -53 155 -54 160
-2 6 -6 17 -9 25 -4 8 -18 51 -32 95 -14 44 -30 89 -35 100 -7 17 -112 329
-116 345 -1 6 -13 37 -24 65 -4 11 -23 68 -42 127 -18 60 -43 120 -54 135
l-22 28 -477 0 c-329 0 -485 -3 -504 -11z m494 -621 c20 -65 40 -127 45 -138
6 -16 71 -215 75 -235 1 -3 4 -12 8 -20 3 -8 20 -62 37 -120 18 -58 36 -114
40 -125 19 -52 42 -122 46 -140 2 -11 8 -31 13 -45 6 -14 28 -86 51 -160 23
-74 45 -144 50 -155 5 -11 23 -65 39 -119 32 -102 29 -127 -10 -106 -9 5 -19
6 -23 3 -10 -10 -180 -10 -193 0 -7 5 -13 6 -13 1 0 -5 -31 -9 -70 -9 -38 0
-70 2 -70 5 0 3 -9 6 -20 6 -11 0 -20 -3 -20 -6 0 -7 -135 -4 -149 4 -6 4 -11
4 -11 -1 0 -9 -276 -10 -286 -1 -3 4 -12 4 -20 1 -12 -4 -12 1 0 33 7 22 21
66 31 99 9 33 21 71 25 85 17 50 71 229 75 247 2 10 10 37 19 61 8 23 13 42
11 42 -2 0 3 17 11 37 9 20 18 45 20 55 8 35 14 55 64 218 29 91 53 170 54
175 2 6 6 17 9 25 3 8 31 102 63 208 31 105 59 192 60 192 2 0 19 -53 39 -117z"/>
<path d="M6935 8535 c-10 -15 -12 -73 -10 -230 2 -115 7 -383 10 -595 9 -532
9 -1252 0 -1775 -12 -685 -11 -843 1 -855 16 -16 721 -15 740 1 11 9 13 67 10
340 -2 180 -7 333 -10 338 -4 5 -2 12 4 16 6 4 8 11 4 16 -18 30 -19 2047 -1
2066 3 2 1 18 -3 34 -5 16 -6 29 -2 29 4 0 7 137 7 304 0 235 -3 308 -13 318
-10 10 -92 13 -369 13 -346 0 -356 0 -368 -20z"/>
<path d="M9015 8538 c-14 -11 -36 -58 -59 -125 -20 -59 -40 -115 -43 -123 -3
-8 -7 -19 -9 -25 -1 -5 -43 -127 -94 -270 -50 -143 -93 -267 -95 -275 -5 -19
-123 -359 -132 -380 -3 -8 -7 -19 -9 -25 -3 -14 -63 -187 -71 -205 -3 -8 -7
-19 -8 -25 -2 -5 -31 -89 -65 -185 -34 -96 -72 -206 -85 -245 -13 -38 -38
-110 -55 -160 -18 -49 -66 -187 -107 -305 -41 -118 -113 -325 -160 -460 -47
-135 -91 -263 -98 -285 -7 -22 -36 -105 -64 -184 -52 -148 -58 -175 -41 -186
6 -4 171 -6 367 -6 320 0 357 2 374 17 15 14 31 50 44 104 1 7 51 165 82 263
14 43 26 84 27 90 3 17 72 238 104 332 l27 80 650 0 650 0 48 -150 c27 -82 62
-190 78 -240 16 -49 31 -97 33 -105 5 -18 71 -227 92 -290 23 -68 35 -89 56
-96 14 -4 325 -6 675 -4 50 0 63 3 67 18 3 9 -30 121 -73 247 -43 127 -81 237
-84 245 -3 8 -19 58 -37 110 -18 52 -35 102 -38 110 -3 8 -6 20 -8 25 -1 6
-44 129 -94 275 -50 146 -93 272 -95 280 -2 8 -11 35 -20 60 -9 25 -18 53 -20
62 -2 9 -8 25 -13 35 -6 10 -11 23 -12 28 -4 18 -8 29 -60 180 -28 83 -53 157
-55 165 -2 8 -34 101 -70 205 -36 105 -67 195 -68 200 -7 27 -60 181 -66 190
-3 6 -6 15 -7 20 -3 15 -144 437 -154 460 -8 17 -135 388 -144 420 -2 6 -5 17
-8 25 -3 8 -13 36 -23 62 -10 30 -24 50 -38 54 -12 5 -235 8 -496 9 -435 0
-476 -1 -496 -17z m479 -535 c4 -16 31 -102 60 -193 30 -91 77 -239 105 -330
29 -91 56 -174 61 -185 5 -11 27 -81 50 -155 23 -74 55 -175 72 -225 17 -49
32 -97 33 -105 2 -8 13 -42 25 -75 11 -33 20 -60 20 -60 -1 0 1 -7 4 -15 21
-67 27 -92 22 -97 -9 -9 -317 -9 -323 0 -2 4 -12 4 -21 -1 -22 -10 -193 -9
-210 1 -6 5 -12 5 -12 0 0 -10 -291 -10 -307 0 -6 4 -13 3 -15 -3 -2 -5 -9 -6
-16 -1 -11 6 -2 46 43 192 31 101 57 191 60 200 2 9 13 47 25 85 12 38 28 89
35 114 7 25 30 99 50 165 21 66 38 125 39 130 2 6 12 42 24 80 12 39 20 73 19
76 -1 3 4 13 11 22 8 9 11 21 7 27 -3 5 -1 10 6 10 7 0 10 3 6 6 -3 3 4 31 15
62 10 32 21 65 23 75 2 10 16 57 30 105 14 48 28 95 31 105 8 25 21 21 28 -10z"/>
<path d="M898 4942 c-110 -3 -110 -3 -139 -102 -7 -25 -16 -50 -20 -55 -4 -6
-10 -22 -13 -35 -5 -23 -98 -294 -113 -330 -3 -8 -7 -19 -9 -25 -4 -18 -92
-278 -119 -350 -14 -38 -26 -72 -26 -75 -2 -7 0 -2 -64 -190 -31 -91 -66 -192
-78 -225 -12 -33 -22 -64 -23 -70 -1 -5 -19 -57 -39 -115 -20 -58 -38 -109
-40 -115 -1 -5 -5 -19 -9 -30 -5 -11 -12 -31 -16 -45 -4 -14 -11 -34 -16 -45
-4 -11 -8 -24 -10 -30 -1 -5 -39 -117 -84 -248 -46 -131 -80 -241 -76 -244 10
-10 376 -7 385 3 8 9 25 60 131 394 28 91 58 181 65 200 l13 35 443 1 c315 1
446 -2 451 -10 4 -6 26 -69 49 -141 22 -71 43 -137 47 -145 3 -8 6 -17 7 -20
11 -45 99 -307 105 -314 10 -10 376 -14 393 -4 7 4 -6 54 -36 145 -26 76 -150
446 -277 823 -127 377 -271 807 -321 955 -50 149 -93 277 -96 285 -4 8 -7 17
-7 20 -1 3 -9 26 -19 51 -13 35 -24 48 -43 52 -13 2 -27 1 -30 -4 -2 -4 -11
-6 -19 -3 -17 7 -212 10 -347 6z m251 -628 c44 -138 81 -256 81 -263 0 -6 4
-19 10 -29 16 -29 140 -425 135 -431 -7 -6 -655 -8 -664 -1 -4 3 15 73 41 155
27 83 50 155 52 160 6 25 39 133 51 165 7 19 29 89 50 155 20 66 53 170 72
230 19 61 36 117 38 125 2 8 4 16 5 18 2 1 3 5 4 10 1 4 5 13 10 21 6 10 12 3
21 -25 7 -22 49 -152 94 -290z"/>
<path d="M2235 4942 c-82 -1 -154 -7 -160 -13 -6 -6 -9 -133 -7 -352 2 -188 5
-549 7 -802 1 -253 6 -480 10 -505 22 -146 84 -309 155 -405 44 -59 157 -165
177 -165 7 0 13 -4 13 -9 0 -9 113 -62 171 -80 115 -36 223 -50 379 -46 80 1
154 5 165 8 16 4 92 18 115 22 24 3 145 55 185 79 100 60 155 110 223 204 49
70 101 191 117 275 3 10 6 26 9 35 3 9 8 37 11 62 3 25 8 62 11 82 3 20 7 388
8 817 3 776 3 781 -17 787 -26 8 -338 7 -346 -2 -3 -3 -6 -362 -6 -797 -1
-436 -4 -803 -8 -817 -4 -14 -10 -38 -12 -53 -9 -47 -53 -147 -81 -186 -95
-127 -226 -182 -419 -176 -151 4 -232 34 -316 116 -46 44 -103 143 -115 199
-33 147 -33 161 -31 938 2 769 2 773 -18 777 -45 9 -77 10 -220 7z"/>
<path d="M4025 4942 c-44 -2 -83 -6 -88 -11 -11 -11 -12 -290 0 -302 5 -5 151
-10 328 -11 l320 -3 2 -135 c6 -348 6 -997 0 -1407 -7 -426 -6 -453 10 -460
21 -10 380 -9 390 0 6 7 6 124 -3 672 -4 322 -4 627 1 935 2 118 4 257 4 308
l1 92 314 0 c173 0 321 3 330 6 14 5 16 28 15 154 l0 148 -29 11 c-19 6 -32 6
-35 0 -4 -5 -11 -7 -16 -3 -8 4 -452 8 -469 3 -3 -1 -9 -1 -15 1 -11 2 -457 1
-465 -1 -3 -1 -9 -1 -15 1 -22 4 -458 0 -463 -4 -2 -3 -12 -2 -21 2 -9 4 -52
6 -96 4z"/>
<path d="M5845 4942 c-33 -2 -64 -7 -70 -13 -5 -5 -8 -163 -5 -407 4 -477 4
-1002 -1 -1519 -2 -210 0 -385 4 -389 12 -13 370 -10 382 3 9 9 12 124 10 452
l-3 441 204 0 205 0 39 -62 c21 -35 43 -68 49 -75 6 -7 11 -14 11 -17 0 -3 42
-69 93 -148 52 -79 146 -236 210 -349 65 -114 125 -217 136 -230 18 -23 21
-23 235 -22 119 0 219 3 222 6 7 7 -7 33 -61 117 -55 85 -227 359 -240 382 -5
10 -46 75 -90 145 -44 70 -82 132 -84 137 -2 6 -7 13 -10 16 -12 9 -91 140
-86 141 3 1 8 2 13 3 140 32 307 148 394 274 26 38 92 182 83 182 -2 0 3 22
10 49 19 74 17 282 -5 366 -79 310 -322 483 -715 509 -71 5 -215 8 -230 6 -5
-2 -14 -2 -20 0 -11 2 -457 1 -465 -1 -3 -1 -9 0 -15 1 -19 4 -141 5 -200 2z
m990 -331 c193 -47 297 -191 290 -402 -5 -164 -75 -278 -205 -336 -93 -42
-130 -45 -473 -47 l-287 -1 -1 25 c-1 35 -1 109 1 145 0 17 1 68 1 115 0 106
6 503 8 511 2 12 614 2 666 -10z"/>
<path d="M7800 4942 c-57 -1 -107 -7 -110 -13 -4 -5 -5 -121 -3 -257 4 -314 4
-1423 0 -1776 -3 -192 0 -271 8 -280 17 -17 1503 -15 1514 2 10 16 7 289 -3
299 -4 5 -258 8 -564 8 l-557 1 -3 189 c-1 105 -3 274 -5 378 -2 162 -1 187
13 188 8 1 236 2 507 2 270 1 495 5 499 9 12 13 8 288 -5 301 -8 8 -155 11
-514 12 l-502 0 2 135 c1 74 3 213 5 308 l3 172 546 0 c489 0 547 2 553 16 3
9 6 78 6 155 0 135 -1 139 -22 144 -25 6 -1193 12 -1368 7z"/>
<path d="M9260 4929 c0 -7 37 -87 82 -178 46 -91 83 -168 83 -171 0 -3 8 -18
18 -35 9 -16 61 -120 116 -230 54 -110 179 -362 277 -560 l178 -359 -3 -311
c-2 -170 -4 -343 -5 -383 -1 -39 1 -77 5 -84 8 -12 346 -18 379 -6 19 7 19 20
16 393 l-4 385 79 163 c44 89 84 169 89 177 6 8 14 24 19 35 5 11 135 276 290
589 164 331 279 572 273 578 -4 4 -96 7 -203 6 l-194 -3 -20 -40 c-12 -22 -43
-89 -69 -150 -27 -60 -65 -144 -84 -185 -42 -92 -80 -177 -94 -210 -6 -14 -14
-32 -19 -40 -5 -8 -12 -22 -16 -30 -14 -34 -47 -108 -73 -165 -40 -88 -68
-149 -116 -255 -39 -86 -44 -92 -52 -70 -5 14 -24 57 -42 95 -17 39 -38 84
-45 100 -7 17 -34 74 -59 128 -25 53 -42 97 -39 97 3 0 1 6 -5 13 -6 6 -28 53
-50 102 -45 103 -73 164 -112 250 -15 33 -49 110 -76 170 -26 61 -57 128 -69
150 l-20 40 -218 3 c-161 2 -217 -1 -217 -9z"/>
</g>
</svg>
